<svg width="64" height="28" viewBox="0 0 64 28" fill="none" xmlns="http://www.w3.org/2000/svg">
<path fill-rule="evenodd" clip-rule="evenodd" d="M12.8128 6.61745C14.3121 6.61745 15.5275 7.83293 15.5275 9.33217C15.5275 10.8315 14.3121 12.047 12.8128 12.047C11.3133 12.047 10.098 10.8315 10.098 9.33217C10.098 7.83293 11.3133 6.61745 12.8128 6.61745ZM12.8128 15.5941C16.2711 15.5941 19.0747 12.7905 19.0747 9.33218C19.0747 5.87371 16.2711 3.07031 12.8128 3.07031C9.35435 3.07031 6.55078 5.87372 6.55078 9.33218C6.55078 12.7905 9.35435 15.5941 12.8128 15.5941Z" fill="#3A3A3A"/>
<path fill-rule="evenodd" clip-rule="evenodd" d="M48.4008 6.57446C49.9001 6.57446 51.1156 7.78994 51.1156 9.2893C51.1156 10.7887 49.9001 12.0042 48.4008 12.0042C46.9013 12.0042 45.6858 10.7887 45.6858 9.2893C45.6858 7.78994 46.9013 6.57446 48.4008 6.57446ZM48.4009 15.5513C51.8591 15.5513 54.6627 12.7477 54.6627 9.2893C54.6627 5.83093 51.8591 3.02734 48.4009 3.02734C44.9425 3.02734 42.1387 5.83093 42.1387 9.2893C42.1387 12.7477 44.9425 15.5513 48.4009 15.5513Z" fill="#3A3A3A"/>
<path fill-rule="evenodd" clip-rule="evenodd" d="M58.0094 3.06638C57.0424 3.06638 56.258 3.85087 56.258 4.81853V20.1792H46.6886C46.1097 20.1792 45.6401 19.7096 45.6401 19.1302V18.4976C45.6401 17.5298 44.8561 16.7453 43.889 16.7453C42.9218 16.7453 42.1377 17.5298 42.1377 18.4976V19.9485C42.1377 21.8339 43.6652 23.3624 45.5495 23.3624H58.0094C58.0643 23.3624 58.1185 23.3595 58.1719 23.3541C59.0629 23.2719 59.7606 22.5228 59.7606 21.61V4.81854C59.7606 3.85087 58.9767 3.06639 58.0094 3.06639V3.06638Z" fill="#3A3A3A"/>
<path fill-rule="evenodd" clip-rule="evenodd" d="M25.5674 15.15C26.3055 15.6618 27.3176 15.4764 27.8283 14.7384L31.9459 8.78567L34.1546 14.4082C34.4062 15.0483 35.0187 15.4396 35.6672 15.4396C35.8649 15.4396 36.066 15.4027 36.2613 15.3265C37.0967 14.9977 37.5077 14.0537 37.1793 13.2178L34.6896 6.179H37.3137C38.1923 6.179 38.9045 5.46626 38.9045 4.58731C38.9045 3.70816 38.1923 2.99554 37.3137 2.99554H27.5858C26.7074 2.99554 25.9951 3.70816 25.9951 4.58731C25.9951 5.46626 26.7074 6.179 27.5858 6.179H29.4787L25.1559 12.8874C24.6452 13.6262 24.8293 14.6386 25.5674 15.15L25.5674 15.15Z" fill="#3A3A3A"/>
<path fill-rule="evenodd" clip-rule="evenodd" d="M20.0329 16.7437H14.4026H11.2216H5.59114C4.71269 16.7437 4.0007 17.4562 4.0007 18.3353C4.0007 19.2144 4.71269 19.9272 5.59114 19.9272H11.2216V21.6997C11.2216 22.5788 11.9337 23.2914 12.8121 23.2914C13.6906 23.2914 14.4026 22.5788 14.4026 21.6997V19.9272H20.0329C20.9112 19.9272 21.6234 19.2144 21.6234 18.3353C21.6234 17.4562 20.9112 16.7437 20.0329 16.7437H20.0329Z" fill="#3A3A3A"/>
<path fill-rule="evenodd" clip-rule="evenodd" d="M39.1013 16.7437H33.471H30.29H24.6596C23.7812 16.7437 23.0691 17.4562 23.0691 18.3353C23.0691 19.2144 23.7812 19.9272 24.6596 19.9272H30.29V21.6997C30.29 22.5788 31.0021 23.2914 31.8804 23.2914C32.7588 23.2914 33.471 22.5788 33.471 21.6997V19.9272H39.1013C39.9798 19.9272 40.6919 19.2144 40.6919 18.3353C40.6919 17.4562 39.9798 16.7437 39.1013 16.7437Z" fill="#3A3A3A"/>
</svg>
