<svg width="20" height="20" viewBox="0 0 20 20" fill="currentColor" xmlns="http://www.w3.org/2000/svg">
<path d="M15 3H5C3.9 3 3 3.9 3 5V15C3 16.1 3.9 17 5 17H15C16.1 17 17 16.1 17 15V5C17 3.9 16.1 3 15 3ZM15.8 15C15.8 15.4 15.4 15.8 15 15.8H5C4.6 15.8 4.2 15.4 4.2 15V5C4.2 4.6 4.6 4.2 5 4.2H15C15.4 4.2 15.8 4.6 15.8 5V15Z" fill="currentColor"/>
<path d="M8.9 7.7C8.5 7.2 8 7 7.5 7C7 7 6.5 7.2 6.1 7.7C5.7 8.2 5.5 8.8 5.5 9.4V10V11V12.4C5.5 12.7 5.8 13 6.1 13C6.4 13 6.7 12.7 6.7 12.4V11H8.3V12.4C8.3 12.7 8.6 13 8.9 13C9.2 13 9.5 12.7 9.5 12.4V11V10V9.4C9.5 8.8 9.3 8.2 8.9 7.7ZM8.3 9.8H6.7V9.4C6.7 9.1 6.8 8.7 7 8.5C7.1 8.3 7.3 8.2 7.5 8.2C7.7 8.2 7.8 8.3 8 8.5C8.2 8.8 8.3 9.1 8.3 9.4V9.8Z" fill="currentColor"/>
<path d="M13.9 7C13.6 7 13.3 7.3 13.3 7.6V9H12.9C12.3 9 11.7 9.2 11.2 9.6C10.2 10.4 10.2 11.7 11.2 12.4C11.7 12.8 12.3 13 12.9 13H14.5V10V7.6C14.5 7.3 14.2 7 13.9 7ZM13.3 11.8H12.9C12.6 11.8 12.2 11.7 12 11.5C11.8 11.3 11.7 11.2 11.7 11C11.7 10.8 11.8 10.7 12 10.5C12.3 10.3 12.6 10.2 12.9 10.2H13.3V11.8Z" fill="currentColor"/>
</svg>
