<svg width="20" height="20" viewBox="0 0 20 20" fill="currentColor" xmlns="http://www.w3.org/2000/svg">
<path d="M13.609 6.91406C13.4975 6.91388 13.3873 6.93579 13.2843 6.97853C13.1813 7.02126 13.088 7.08398 13.0094 7.16306L8.42738 11.7421L6.40833 9.65006C6.32938 9.56771 6.23456 9.50227 6.12953 9.45775C6.02449 9.41322 5.91109 9.39053 5.79701 9.39106C5.57721 9.39087 5.3661 9.47623 5.20814 9.62906C5.04655 9.78559 4.95377 9.99979 4.94984 10.2247C4.9459 10.4497 5.03113 10.667 5.18714 10.8291L7.80628 13.5431C7.88433 13.6236 7.97725 13.6879 8.08021 13.7324C8.18317 13.7768 8.29425 13.8005 8.40638 13.8021H8.41419C8.63916 13.8012 8.85484 13.7118 9.01429 13.5531L14.2042 8.36306C14.3628 8.20361 14.4518 7.98791 14.4518 7.76306C14.4518 7.53822 14.3628 7.32251 14.2042 7.16306C14.1263 7.08449 14.0334 7.02206 13.9313 6.97933C13.8292 6.93661 13.7197 6.91443 13.609 6.91406Z" fill="currentColor"/>
</svg>
