<svg width="36" height="36" viewBox="0 0 36 36" fill="currentColor" xmlns="http://www.w3.org/2000/svg">
<path fill-rule="evenodd" clip-rule="evenodd" d="M7.15342 7.15342C7.35798 6.94886 7.68964 6.94886 7.8942 7.15342L28.8466 28.1058C29.0511 28.3104 29.0511 28.642 28.8466 28.8466C28.642 29.0511 28.3104 29.0511 28.1058 28.8466L7.15342 7.8942C6.94886 7.68964 6.94886 7.35798 7.15342 7.15342Z" fill="currentColor"/>
<path fill-rule="evenodd" clip-rule="evenodd" d="M28.8466 7.15342C28.642 6.94886 28.3104 6.94886 28.1058 7.15342L7.15342 28.1058C6.94886 28.3104 6.94886 28.642 7.15342 28.8466C7.35798 29.0511 7.68964 29.0511 7.8942 28.8466L28.8466 7.8942C29.0511 7.68964 29.0511 7.35798 28.8466 7.15342Z" fill="currentColor"/>
</svg>
