<svg width="20" height="20" viewBox="0 0 20 20" fill="currentColor" >
<path d="M9.1665 5.83317H10.8332V7.49984H9.1665V5.83317ZM9.1665 9.1665H10.8332V14.1665H9.1665V9.1665ZM9.99984 1.6665C5.39984 1.6665 1.6665 5.39984 1.6665 9.99984C1.6665 14.5998 5.39984 18.3332 9.99984 18.3332C14.5998 18.3332 18.3332 14.5998 18.3332 9.99984C18.3332 5.39984 14.5998 1.6665 9.99984 1.6665ZM9.99984 16.6665C6.32484 16.6665 3.33317 13.6748 3.33317 9.99984C3.33317 6.32484 6.32484 3.33317 9.99984 3.33317C13.6748 3.33317 16.6665 6.32484 16.6665 9.99984C16.6665 13.6748 13.6748 16.6665 9.99984 16.6665Z" fill="currentColor"/>
</svg>
