<svg width="20" height="20" viewBox="0 0 20 20" fill="currentColor" xmlns="http://www.w3.org/2000/svg">
<g clip-path="url(#clip0_1786_6264)">
<path d="M10 2C8.14348 2 6.36302 2.7375 5.05026 4.05025C3.73751 5.36301 3 7.14348 3 9V12C3 12.5304 3.21071 13.0391 3.58578 13.4142C3.96086 13.7893 4.46957 14 5 14C5.53043 14 6.03914 13.7893 6.41422 13.4142C6.78929 13.0391 7 12.5304 7 12V10C7.00145 9.67402 6.92283 9.35267 6.77106 9.06417C6.61928 8.77567 6.39898 8.52885 6.12952 8.34539C5.86005 8.16193 5.54967 8.04744 5.22562 8.01198C4.90156 7.97651 4.57376 8.02116 4.271 8.142C4.47523 6.76859 5.16606 5.51425 6.21762 4.60751C7.26918 3.70076 8.61149 3.20195 10 3.20195C11.3885 3.20195 12.7308 3.70076 13.7824 4.60751C14.8339 5.51425 15.5248 6.76859 15.729 8.142C15.4262 8.02116 15.0984 7.97651 14.7744 8.01198C14.4503 8.04744 14.1399 8.16193 13.8705 8.34539C13.601 8.52885 13.3807 8.77567 13.2289 9.06417C13.0772 9.35267 12.9986 9.67402 13 10V12C13.0006 12.4245 13.1367 12.8378 13.3885 13.1795C13.6403 13.5213 13.9947 13.7737 14.4 13.9V14C14.4 14.3713 14.2525 14.7274 13.99 14.99C13.7274 15.2525 13.3713 15.4 13 15.4H10C9.84087 15.4 9.68827 15.4632 9.57574 15.5757C9.46322 15.6883 9.39999 15.8409 9.39999 16C9.39999 16.1591 9.46322 16.3117 9.57574 16.4243C9.68827 16.5368 9.84087 16.6 10 16.6H13C13.6896 16.6 14.3509 16.3261 14.8385 15.8385C15.3261 15.3509 15.6 14.6896 15.6 14V13.9C16.0053 13.7737 16.3597 13.5213 16.6115 13.1795C16.8633 12.8378 16.9994 12.4245 17 12V9C17 7.14348 16.2625 5.36301 14.9497 4.05025C13.637 2.7375 11.8565 2 10 2ZM5 9.2C5.21217 9.2 5.41564 9.28428 5.56567 9.43431C5.7157 9.58434 5.79999 9.78783 5.79999 10V12C5.79999 12.2122 5.7157 12.4157 5.56567 12.5657C5.41564 12.7157 5.21217 12.8 5 12.8C4.78783 12.8 4.58436 12.7157 4.43433 12.5657C4.2843 12.4157 4.20001 12.2122 4.20001 12V10C4.20001 9.78783 4.2843 9.58434 4.43433 9.43431C4.58436 9.28428 4.78783 9.2 5 9.2ZM15.464 12.634C15.3456 12.7184 15.2064 12.7689 15.0614 12.7801C14.9164 12.7913 14.7711 12.7627 14.6411 12.6975C14.5112 12.6323 14.4014 12.5329 14.3237 12.41C14.2459 12.2871 14.2032 12.1454 14.2 12V10C14.2 9.78783 14.2843 9.58434 14.4343 9.43431C14.5844 9.28428 14.7878 9.2 15 9.2C15.2122 9.2 15.4156 9.28428 15.5657 9.43431C15.7157 9.58434 15.8 9.78783 15.8 10V12C15.7982 12.1247 15.7669 12.2473 15.7085 12.3575C15.65 12.4678 15.5662 12.5625 15.464 12.634Z" fill="currentColor"/>
</g>
<defs>
<clipPath id="clip0_1786_6264">
<rect width="14" height="14.6" fill="none" transform="translate(3 2)"/>
</clipPath>
</defs>
</svg>
