<svg width="20" height="20" viewBox="0 0 20 20" fill="currentColor" xmlns="http://www.w3.org/2000/svg">
<g clip-path="url(#clip0_1786_6840)">
<path d="M15.373 16C15.2903 15.9998 15.2086 15.983 15.1325 15.9507C15.0564 15.9184 14.9876 15.8713 14.93 15.812L9.26599 9.99998L14.93 4.18799C14.9874 4.12841 15.0562 4.081 15.1323 4.04863C15.2084 4.01626 15.2903 3.99957 15.373 3.99957C15.4557 3.99957 15.5376 4.01626 15.6137 4.04863C15.6898 4.081 15.7586 4.12841 15.816 4.18799C15.9339 4.3101 15.9998 4.47322 15.9998 4.64298C15.9998 4.81274 15.9339 4.97587 15.816 5.09798L11.038 9.99799L15.816 14.898C15.9339 15.0201 15.9998 15.1832 15.9998 15.353C15.9998 15.5227 15.9339 15.6859 15.816 15.808C15.7588 15.8681 15.6901 15.916 15.614 15.949C15.5379 15.982 15.4559 15.9993 15.373 16Z" fill="currentColor"/>
<path d="M10.108 16C10.0253 15.9999 9.94355 15.9832 9.86746 15.9509C9.79137 15.9186 9.72252 15.8714 9.66501 15.812L4 9.99998L9.66501 4.18799C9.72238 4.12841 9.79119 4.081 9.86731 4.04863C9.94343 4.01626 10.0253 3.99957 10.108 3.99957C10.1907 3.99957 10.2726 4.01626 10.3487 4.04863C10.4248 4.081 10.4936 4.12841 10.551 4.18799C10.6685 4.31034 10.7341 4.47337 10.7341 4.64298C10.7341 4.81259 10.6685 4.97563 10.551 5.09798L5.772 9.99799L10.551 14.898C10.6685 15.0203 10.7341 15.1834 10.7341 15.353C10.7341 15.5226 10.6685 15.6856 10.551 15.808C10.4937 15.868 10.4251 15.9159 10.349 15.9489C10.2729 15.9819 10.1909 15.9992 10.108 16Z" fill="currentColor"/>
</g>
<defs>
<clipPath id="clip0_1786_6840">
<rect width="12" height="12" fill="none" transform="translate(4 4)"/>
</clipPath>
</defs>
</svg>
