<svg width="20" height="20" viewBox="0 0 20 20" fill="currentColor" xmlns="http://www.w3.org/2000/svg">
<path d="M17.464 6.77201L11.117 2.353C10.7898 2.1233 10.3998 2.00006 10 2.00006C9.60024 2.00006 9.2102 2.1233 8.88301 2.353L2.53601 6.77201C2.31567 6.92647 2.15221 7.14906 2.0708 7.40554C1.9894 7.66202 1.99456 7.93814 2.08549 8.1914C2.17643 8.44465 2.34809 8.661 2.57405 8.80711C2.80002 8.95322 3.06774 9.021 3.33601 9.00001H4.00001V15C4.00001 15.5304 4.21072 16.0392 4.5858 16.4142C4.96087 16.7893 5.46958 17 6.00001 17H14C14.5304 17 15.0392 16.7893 15.4142 16.4142C15.7893 16.0392 16 15.5304 16 15V9.00001H16.664C16.9323 9.021 17.2 8.95322 17.426 8.80711C17.6519 8.661 17.8236 8.44465 17.9145 8.1914C18.0055 7.93814 18.0106 7.66202 17.9292 7.40554C17.8478 7.14906 17.6844 6.92647 17.464 6.77201ZM16.664 7.80001H14.8V15C14.8 15.2122 14.7157 15.4157 14.5657 15.5657C14.4157 15.7157 14.2122 15.8 14 15.8H6.00001C5.78784 15.8 5.58435 15.7157 5.43432 15.5657C5.28429 15.4157 5.20001 15.2122 5.20001 15V7.80001H3.33601C3.22001 7.80001 3.20301 7.75701 3.21801 7.75701L3.99701 7.215L5.74501 6.00001L9.56901 3.33701C9.69503 3.24781 9.84562 3.19991 10 3.19991C10.1544 3.19991 10.305 3.24781 10.431 3.33701L14.278 6.00001L16 7.19201L16.8 7.74601C16.8 7.75201 16.786 7.80001 16.664 7.80001Z" fill="currentColor"/>
<path d="M11 9.87799H9C8.73478 9.87799 8.48043 9.98335 8.29289 10.1709C8.10536 10.3584 8 10.6128 8 10.878V12.878C8 13.1432 8.10536 13.3976 8.29289 13.5851C8.48043 13.7726 8.73478 13.878 9 13.878H11C11.2652 13.878 11.5196 13.7726 11.7071 13.5851C11.8946 13.3976 12 13.1432 12 12.878V10.878C12 10.6128 11.8946 10.3584 11.7071 10.1709C11.5196 9.98335 11.2652 9.87799 11 9.87799ZM10.8 12.678H9.2V11.078H10.8V12.678Z" fill="currentColor"/>
</svg>
