<svg width="20" height="20" viewBox="0 0 20 20" fill="currentColor" xmlns="http://www.w3.org/2000/svg">
<path d="M9.99997 2C8.41942 2.00119 6.87469 2.47088 5.561 3.34973C4.24732 4.22858 3.22363 5.47713 2.61932 6.9376C2.01502 8.39807 1.85722 10.0049 2.16586 11.555C2.4745 13.1051 3.23574 14.529 4.35336 15.6466C5.47098 16.7642 6.89482 17.5255 8.44495 17.8341C9.99507 18.1427 11.6019 17.9849 13.0624 17.3806C14.5228 16.7763 15.7714 15.7527 16.6502 14.439C17.5291 13.1253 17.9988 11.5806 18 10C18 7.87827 17.1571 5.84344 15.6568 4.34315C14.1565 2.84286 12.1217 2 9.99997 2ZM9.99997 16.8C9.73556 16.7985 9.47146 16.7818 9.20897 16.75C8.25647 16.6381 7.33875 16.3244 6.51697 15.83C6.73855 15.3584 7.08961 14.9595 7.52922 14.6797C7.96883 14.4 8.4789 14.251 8.99997 14.25H11C11.521 14.251 12.0311 14.4 12.4707 14.6797C12.9103 14.9595 13.2614 15.3584 13.483 15.83C12.6612 16.3244 11.7435 16.6381 10.791 16.75C10.5285 16.7818 10.2644 16.7985 9.99997 16.8ZM14.494 15.09C14.1534 14.4596 13.6491 13.9327 13.0342 13.5648C12.4193 13.197 11.7165 13.0019 11 13H8.99997C8.28343 13.0019 7.58067 13.197 6.96574 13.5648C6.35082 13.9327 5.84651 14.4596 5.50597 15.09C4.46905 14.1769 3.73489 12.9696 3.40123 11.6288C3.06757 10.2881 3.15025 8.87746 3.63826 7.58486C4.12627 6.29226 4.99646 5.17899 6.13295 4.39327C7.26944 3.60755 8.61831 3.18667 9.99997 3.18667C11.3816 3.18667 12.7305 3.60755 13.867 4.39327C15.0035 5.17899 15.8737 6.29226 16.3617 7.58486C16.8497 8.87746 16.9324 10.2881 16.5987 11.6288C16.2651 12.9696 15.5309 14.1769 14.494 15.09Z" fill="currentColor"/>
<path d="M10 6C9.40665 6 8.82663 6.17595 8.33328 6.50559C7.83993 6.83524 7.45542 7.30377 7.22836 7.85195C7.0013 8.40013 6.94189 9.00333 7.05765 9.58527C7.1734 10.1672 7.45912 10.7018 7.87868 11.1213C8.29823 11.5409 8.83279 11.8266 9.41473 11.9424C9.99668 12.0581 10.5999 11.9987 11.1481 11.7716C11.6962 11.5446 12.1648 11.1601 12.4944 10.6667C12.8241 10.1734 13 9.59334 13 9C13 8.20435 12.6839 7.44129 12.1213 6.87868C11.5587 6.31607 10.7956 6 10 6ZM10 10.75C9.65388 10.75 9.31554 10.6474 9.02775 10.4551C8.73997 10.2628 8.51566 9.98946 8.38321 9.66969C8.25075 9.34992 8.2161 8.99806 8.28363 8.65859C8.35115 8.31913 8.51781 8.00731 8.76256 7.76257C9.0073 7.51782 9.31912 7.35115 9.65858 7.28362C9.99805 7.2161 10.3499 7.25076 10.6697 7.38321C10.9895 7.51566 11.2628 7.73997 11.4551 8.02776C11.6474 8.31554 11.75 8.65388 11.75 9C11.7495 9.46397 11.5649 9.90878 11.2368 10.2369C10.9088 10.5649 10.464 10.7495 10 10.75Z" fill="currentColor"/>
</svg>
