<svg width="20" height="20" viewBox="0 0 20 20" fill="none" xmlns="http://www.w3.org/2000/svg">
<path d="M9.99998 17.4C14.0869 17.4 17.4 14.0869 17.4 10C17.4 5.9131 14.0869 2.60001 9.99998 2.60001C5.91307 2.60001 2.59998 5.9131 2.59998 10C2.59998 14.0869 5.91307 17.4 9.99998 17.4Z" stroke="currentColor" stroke-width="1.2" stroke-miterlimit="10"/>
<path d="M10.144 13C9.192 12.9953 8.2661 12.6882 7.5 12.123L8.24701 11.04C8.81365 11.4548 9.48879 11.6956 10.19 11.733C10.695 11.733 10.926 11.56 10.926 11.3V11.278C10.926 10.921 10.326 10.802 9.64999 10.606C8.78699 10.368 7.81 9.98899 7.81 8.86299V8.84C7.81 7.66 8.82199 6.99899 10.063 6.99899C10.8766 7.00824 11.6721 7.24031 12.363 7.66999L11.697 8.80799C11.191 8.50012 10.6203 8.31453 10.03 8.26599C9.604 8.26599 9.38599 8.43899 9.38599 8.66599V8.687C9.38599 9.013 9.97201 9.164 10.639 9.381C11.501 9.652 12.501 10.041 12.501 11.103V11.125C12.5 12.415 11.477 13 10.144 13Z" fill="currentColor"/>
<path d="M10 13V14" stroke="currentColor" stroke-width="1.2" stroke-miterlimit="10" stroke-linecap="round"/>
<path d="M10 6V7" stroke="currentColor" stroke-width="1.2" stroke-miterlimit="10" stroke-linecap="round"/>
</svg>
