<svg width="20" height="20" viewBox="0 0 20 20" fill="currentColor" xmlns="http://www.w3.org/2000/svg">
<path d="M15 3H13.1V2.6C13.1 2.3 12.8 2 12.5 2C12.2 2 11.9 2.3 11.9 2.6V3H8.1V2.6C8.1 2.3 7.8 2 7.5 2C7.2 2 6.9 2.3 6.9 2.6V3H5C3.9 3 3 3.9 3 5V6.8V8V15C3 16.1 3.9 17 5 17H15C16.1 17 17 16.1 17 15V8V6.8V5C17 3.9 16.1 3 15 3ZM15.8 15C15.8 15.4 15.4 15.8 15 15.8H5C4.6 15.8 4.2 15.4 4.2 15V8H15.8V15ZM15.8 6.8H4.2V5C4.2 4.6 4.6 4.2 5 4.2H6.9V4.4C6.9 4.7 7.2 5 7.5 5C7.8 5 8.1 4.7 8.1 4.4V4.2H11.9V4.4C11.9 4.7 12.2 5 12.5 5C12.8 5 13.1 4.7 13.1 4.4V4.2H15C15.4 4.2 15.8 4.6 15.8 5V6.8Z" fill="currentColor"/>
<path d="M7 13H9C9.6 13 10 12.6 10 12V10C10 9.4 9.6 9 9 9H7C6.4 9 6 9.4 6 10V12C6 12.6 6.4 13 7 13ZM7.2 10.2H8.7V11.7H7.2V10.2Z" fill="currentColor"/>
</svg>
