<svg width="20" height="20" viewBox="0 0 20 20" fill="currentColor" xmlns="http://www.w3.org/2000/svg">
<path d="M10.36 3.2C10.545 3.19987 10.7244 3.26388 10.8675 3.38112C11.0106 3.49836 11.1087 3.66158 11.145 3.843C11.1951 4.09497 11.3066 4.33069 11.4695 4.52928C11.6325 4.72787 11.842 4.8832 12.0793 4.9815C12.3167 5.0798 12.5746 5.11804 12.8303 5.09283C13.0859 5.06763 13.3314 4.97976 13.545 4.837C13.6989 4.73453 13.8834 4.6885 14.0674 4.70673C14.2513 4.72496 14.4232 4.80633 14.554 4.937L15.064 5.446C15.1949 5.5768 15.2764 5.74895 15.2947 5.93311C15.3129 6.11728 15.2667 6.30207 15.164 6.456C15.0215 6.66965 14.9338 6.91511 14.9088 7.1707C14.8837 7.42629 14.922 7.68411 15.0202 7.92138C15.1185 8.15865 15.2737 8.36805 15.4722 8.53106C15.6706 8.69407 15.9062 8.80568 16.158 8.856C16.3394 8.89231 16.5026 8.99038 16.6199 9.13351C16.7371 9.27664 16.8011 9.45598 16.801 9.641V10.361C16.8011 10.546 16.7371 10.7254 16.6199 10.8685C16.5026 11.0116 16.3394 11.1097 16.158 11.146C15.9062 11.1963 15.6706 11.3079 15.4722 11.4709C15.2737 11.634 15.1185 11.8434 15.0202 12.0806C14.922 12.3179 14.8837 12.5757 14.9088 12.8313C14.9338 13.0869 15.0215 13.3324 15.164 13.546C15.2665 13.6998 15.3125 13.8844 15.2943 14.0684C15.276 14.2523 15.1947 14.4243 15.064 14.555L14.554 15.065C14.4232 15.1957 14.2513 15.277 14.0674 15.2953C13.8834 15.3135 13.6989 15.2675 13.545 15.165C13.3314 15.0222 13.0859 14.9344 12.8303 14.9092C12.5746 14.884 12.3167 14.9222 12.0793 15.0205C11.842 15.1188 11.6325 15.2741 11.4695 15.4727C11.3066 15.6713 11.1951 15.907 11.145 16.159C11.1087 16.3404 11.0106 16.5036 10.8675 16.6209C10.7244 16.7381 10.545 16.8021 10.36 16.802H9.64002C9.455 16.8021 9.27564 16.7381 9.13251 16.6209C8.98938 16.5036 8.89132 16.3404 8.85501 16.159C8.80491 15.907 8.69343 15.6713 8.53046 15.4727C8.36748 15.2741 8.15803 15.1188 7.92069 15.0205C7.68334 14.9222 7.4254 14.884 7.16974 14.9092C6.91408 14.9344 6.66857 15.0222 6.45499 15.165C6.30114 15.2675 6.11659 15.3135 5.93265 15.2953C5.74871 15.277 5.57675 15.1957 5.44601 15.065L4.936 14.555C4.80534 14.4243 4.72398 14.2523 4.70575 14.0684C4.68752 13.8844 4.73353 13.6998 4.836 13.546C4.9785 13.3324 5.06617 13.0869 5.09125 12.8313C5.11632 12.5757 5.07804 12.3179 4.97977 12.0806C4.8815 11.8434 4.72628 11.634 4.52783 11.4709C4.32939 11.3079 4.09384 11.1963 3.84201 11.146C3.66059 11.1097 3.49737 11.0116 3.38013 10.8685C3.26289 10.7254 3.19888 10.546 3.19901 10.361V9.641C3.19888 9.45598 3.26289 9.27664 3.38013 9.13351C3.49737 8.99038 3.66059 8.89231 3.84201 8.856C4.09384 8.80568 4.32939 8.69407 4.52783 8.53106C4.72628 8.36805 4.8815 8.15865 4.97977 7.92138C5.07804 7.68411 5.11632 7.42629 5.09125 7.1707C5.06617 6.91511 4.9785 6.66965 4.836 6.456C4.73327 6.30207 4.68709 6.11728 4.70532 5.93311C4.72356 5.74895 4.80509 5.5768 4.936 5.446L5.44601 4.937C5.57675 4.80633 5.74871 4.72496 5.93265 4.70673C6.11659 4.6885 6.30114 4.73453 6.45499 4.837C6.66857 4.97976 6.91408 5.06763 7.16974 5.09283C7.4254 5.11804 7.68334 5.0798 7.92069 4.9815C8.15803 4.8832 8.36748 4.72787 8.53046 4.52928C8.69343 4.33069 8.80491 4.09497 8.85501 3.843C8.89132 3.66158 8.98938 3.49836 9.13251 3.38112C9.27564 3.26388 9.455 3.19987 9.64002 3.2H10.36ZM10.36 2H9.64002C9.17749 1.99982 8.72916 2.15995 8.37143 2.45314C8.0137 2.74633 7.76866 3.15444 7.67801 3.608C7.66679 3.6666 7.64118 3.7215 7.60349 3.76775C7.56579 3.814 7.51717 3.85015 7.46204 3.87296C7.4069 3.89577 7.34695 3.90452 7.2876 3.89841C7.22824 3.89231 7.17135 3.87155 7.12201 3.838C6.73726 3.58144 6.2755 3.46615 5.81531 3.51173C5.35512 3.55732 4.92493 3.76095 4.59799 4.088L4.08801 4.598C3.76097 4.92494 3.5573 5.35511 3.51172 5.8153C3.46614 6.27549 3.58146 6.73725 3.83801 7.122C3.87105 7.17154 3.89135 7.22846 3.89713 7.28773C3.90291 7.34699 3.89397 7.40677 3.87112 7.46175C3.84828 7.51674 3.81222 7.56525 3.76614 7.60297C3.72007 7.64069 3.66541 7.66646 3.60699 7.678C3.15362 7.76886 2.74575 8.01401 2.45276 8.37172C2.15977 8.72943 1.99977 9.17761 2 9.64V10.36C1.99982 10.8225 2.15994 11.2708 2.45313 11.6286C2.74631 11.9863 3.15445 12.2313 3.608 12.322C3.66642 12.3335 3.72108 12.3593 3.76715 12.397C3.81323 12.4348 3.84929 12.4833 3.87213 12.5382C3.89498 12.5932 3.90391 12.653 3.89813 12.7123C3.89235 12.7715 3.87203 12.8285 3.83899 12.878C3.58244 13.2627 3.46714 13.7245 3.51273 14.1847C3.55831 14.6449 3.76194 15.0751 4.08899 15.402L4.599 15.912C4.92594 16.239 5.35613 16.4427 5.81631 16.4883C6.2765 16.5338 6.73824 16.4186 7.12299 16.162C7.17252 16.129 7.22946 16.1086 7.28873 16.1029C7.34799 16.0971 7.40775 16.106 7.46274 16.1289C7.51773 16.1517 7.56625 16.1878 7.60397 16.2338C7.64169 16.2799 7.66745 16.3346 7.67899 16.393C7.76981 16.8462 8.01481 17.254 8.37231 17.5469C8.72982 17.8399 9.1778 18 9.64002 18H10.36C10.8225 18.0002 11.2708 17.84 11.6286 17.5469C11.9863 17.2537 12.2313 16.8456 12.322 16.392C12.3335 16.3336 12.3593 16.2789 12.397 16.2328C12.4348 16.1868 12.4832 16.1507 12.5382 16.1279C12.5932 16.105 12.653 16.0961 12.7123 16.1019C12.7715 16.1076 12.8285 16.128 12.878 16.161C13.2627 16.4176 13.7245 16.5328 14.1847 16.4873C14.6449 16.4417 15.0751 16.238 15.402 15.911L15.912 15.401C16.239 15.0741 16.4427 14.6439 16.4883 14.1837C16.5339 13.7235 16.4185 13.2617 16.162 12.877C16.1289 12.8275 16.1087 12.7705 16.1029 12.7113C16.0971 12.652 16.106 12.5922 16.1289 12.5372C16.1517 12.4823 16.1878 12.4338 16.2339 12.396C16.2799 12.3583 16.3346 12.3325 16.393 12.321C16.8462 12.2302 17.254 11.9852 17.5469 11.6277C17.8399 11.2702 18 10.8222 18 10.36V9.64C18.0002 9.17747 17.8401 8.72918 17.5469 8.37144C17.2537 8.01371 16.8456 7.76866 16.392 7.678C16.3336 7.66646 16.2789 7.64069 16.2328 7.60297C16.1868 7.56525 16.1507 7.51674 16.1279 7.46175C16.105 7.40677 16.0961 7.34699 16.1019 7.28773C16.1076 7.22846 16.128 7.17154 16.161 7.122C16.4176 6.73725 16.5329 6.27549 16.4873 5.8153C16.4417 5.35511 16.2381 4.92494 15.911 4.598L15.401 4.088C15.0741 3.76095 14.6439 3.55732 14.1837 3.51173C13.7235 3.46615 13.2618 3.58144 12.877 3.838C12.8277 3.87155 12.7708 3.89231 12.7114 3.89841C12.652 3.90452 12.5921 3.89577 12.537 3.87296C12.4818 3.85015 12.4332 3.814 12.3955 3.76775C12.3578 3.7215 12.3322 3.6666 12.321 3.608C12.2304 3.15461 11.9855 2.74662 11.6279 2.45345C11.2704 2.16028 10.8223 2.00005 10.36 2Z" fill="currentColor"/>
<path d="M10 8.2C10.356 8.2 10.704 8.30557 11 8.50336C11.296 8.70114 11.5268 8.98227 11.663 9.31117C11.7992 9.64008 11.8349 10.002 11.7654 10.3512C11.696 10.7003 11.5245 11.0211 11.2728 11.2728C11.0211 11.5245 10.7003 11.696 10.3512 11.7654C10.002 11.8349 9.64006 11.7992 9.31116 11.663C8.98225 11.5267 8.70114 11.296 8.50336 11C8.30557 10.704 8.20001 10.356 8.20001 10C8.20001 9.52261 8.38964 9.06478 8.7272 8.72721C9.06477 8.38965 9.52261 8.2 10 8.2ZM10 7C9.40665 7 8.82663 7.17595 8.33328 7.50559C7.83993 7.83524 7.45542 8.30377 7.22836 8.85195C7.0013 9.40013 6.94189 10.0033 7.05765 10.5853C7.1734 11.1672 7.45913 11.7018 7.87869 12.1213C8.29825 12.5409 8.83279 12.8266 9.41473 12.9424C9.99668 13.0581 10.5999 12.9987 11.148 12.7716C11.6962 12.5446 12.1648 12.1601 12.4944 11.6667C12.8241 11.1734 13 10.5933 13 10C13 9.20435 12.6839 8.44129 12.1213 7.87868C11.5587 7.31607 10.7956 7 10 7Z" fill="currentColor"/>
</svg>
