<svg width="20" height="20" viewBox="0 0 20 20" fill="currentColor" xmlns="http://www.w3.org/2000/svg">
<g clip-path="url(#clip0_1786_6895)">
<path d="M17.346 5.287L11.058 3.16799C10.3704 2.94396 9.62954 2.94396 8.94199 3.16799L2.654 5.287C1.782 5.581 1.782 6.41899 2.654 6.71299L4.99999 7.50299V13.756C4.99848 14.1594 5.11726 14.5541 5.34116 14.8897C5.56506 15.2253 5.88392 15.4865 6.257 15.64L9.24799 16.853C9.72906 17.0476 10.2669 17.0476 10.748 16.853L13.739 15.64C14.1128 15.4871 14.4325 15.2262 14.6572 14.8905C14.8818 14.5549 15.0012 14.1599 15 13.756V7.49999L16 7.16399V10.4C16 10.5591 16.0632 10.7117 16.1757 10.8243C16.2883 10.9368 16.4409 11 16.6 11C16.7591 11 16.9117 10.9368 17.0243 10.8243C17.1368 10.7117 17.2 10.5591 17.2 10.4V6.76199L17.346 6.71299C18.218 6.41899 18.218 5.581 17.346 5.287ZM13.8 13.756C13.8018 13.9206 13.7544 14.082 13.6639 14.2196C13.5734 14.3571 13.4439 14.4645 13.292 14.528L10.301 15.741C10.1086 15.8188 9.89342 15.8188 9.701 15.741L6.71 14.528C6.5581 14.4645 6.4286 14.3571 6.3381 14.2196C6.2476 14.082 6.2002 13.9206 6.20199 13.756V7.90799L8.94399 8.83199C9.63154 9.05602 10.3724 9.05602 11.06 8.83199L13.802 7.90799L13.8 13.756ZM15 6.23699L12.142 7.19999L10.675 7.69999C10.2359 7.84 9.7641 7.84 9.32499 7.69999L7.85899 7.19999L4.99999 6.23599L4.3 5.99999L9.326 4.30599C9.76511 4.16598 10.2369 4.16598 10.676 4.30599L15.7 5.99999L15 6.23699Z" fill="currentColor"/>
</g>
<defs>
<clipPath id="clip0_1786_6895">
<rect width="16" height="14" fill="none" transform="translate(2 3)"/>
</clipPath>
</defs>
</svg>
