<svg width="18" height="18" viewBox="0 0 18 18" fill="currentColor" xmlns="http://www.w3.org/2000/svg">
<path fill-rule="evenodd" clip-rule="evenodd" d="M7.68508 3.09377H10.3151C10.6783 3.09377 11.0007 3.32617 11.1155 3.67071L11.2045 3.9375H6.79568L6.88461 3.67071C6.99946 3.32617 7.32189 3.09377 7.68508 3.09377ZM5.90627 3.9375L6.08414 3.40389C6.31384 2.7148 6.95871 2.25 7.68508 2.25H10.3151C11.0414 2.25 11.6863 2.7148 11.916 3.40389L12.0939 3.9375H14.0627H15.3284C15.5614 3.9375 15.7503 4.12638 15.7503 4.35938C15.7503 4.59238 15.5614 4.78127 15.3284 4.78127H14.0627V14.0627C14.0627 14.9947 13.3072 15.7503 12.3752 15.7503H5.62504C4.69304 15.7503 3.9375 14.9947 3.9375 14.0627V4.78127H2.67188C2.43888 4.78127 2.25 4.59238 2.25 4.35938C2.25 4.12638 2.43888 3.9375 2.67188 3.9375H3.9375H5.90627ZM5.62501 4.78127H4.78127V14.0627C4.78127 14.5287 5.15904 14.9065 5.62504 14.9065H12.3752C12.8412 14.9065 13.219 14.5287 13.219 14.0627V4.78127H12.3751L12.3751 4.78131H5.625L5.62501 4.78127ZM6.89063 6.75C6.65763 6.75 6.46875 6.93888 6.46875 7.17188V13.0783C6.46875 13.3113 6.65763 13.5001 6.89063 13.5001C7.12363 13.5001 7.31252 13.3113 7.31252 13.0783V7.17188C7.31252 6.93888 7.12363 6.75 6.89063 6.75ZM8.57812 7.17188C8.57812 6.93888 8.76701 6.75 9.00001 6.75C9.23301 6.75 9.42189 6.93888 9.42189 7.17188V13.0783C9.42189 13.3113 9.23301 13.5001 9.00001 13.5001C8.76701 13.5001 8.57812 13.3113 8.57812 13.0783V7.17188ZM11.1094 6.75C10.8764 6.75 10.6875 6.93888 10.6875 7.17188V13.0783C10.6875 13.3113 10.8764 13.5001 11.1094 13.5001C11.3424 13.5001 11.5313 13.3113 11.5313 13.0783V7.17188C11.5313 6.93888 11.3424 6.75 11.1094 6.75Z" fill="currentColor"/>
</svg>
