<svg width="20" height="20" viewBox="0 0 20 20" fill="currentColor" xmlns="http://www.w3.org/2000/svg">
<path fill-rule="evenodd" clip-rule="evenodd" d="M3.2 6C3.2 5.55888 3.55888 5.2 4 5.2H12.4V5.9999C12.4 6.33127 12.6687 6.5999 13 6.5999C13.3314 6.5999 13.6 6.33127 13.6 5.9999V5.2H16C16.4411 5.2 16.8 5.55888 16.8 6V8.15684C16.1984 8.54988 15.8 9.22931 15.8 10C15.8 10.7707 16.1984 11.4501 16.8 11.8432V14C16.8 14.4411 16.4411 14.8 16 14.8H13.6V13.9999C13.6 13.6685 13.3314 13.3999 13 13.3999C12.6687 13.3999 12.4 13.6685 12.4 13.9999V14.8H4C3.55888 14.8 3.2 14.4411 3.2 14V11.8432C3.80161 11.4501 4.2 10.7707 4.2 10C4.2 9.22931 3.80161 8.54988 3.2 8.15684V6ZM16 4H4C2.895 4 2 4.895 2 6V9C2.552 9 3 9.448 3 10C3 10.552 2.552 11 2 11V14C2 15.105 2.895 16 4 16H16C17.105 16 18 15.105 18 14V11C17.448 11 17 10.552 17 10C17 9.448 17.448 9 18 9V6C18 4.895 17.105 4 16 4ZM13 8.3999C13.3314 8.3999 13.6 8.66853 13.6 8.9999V10.9999C13.6 11.3313 13.3314 11.5999 13 11.5999C12.6687 11.5999 12.4 11.3313 12.4 10.9999V8.9999C12.4 8.66853 12.6687 8.3999 13 8.3999Z" fill="currentColor"/>
</svg>
